<?xml version="1.0" encoding="utf-8"?>
<!-- Generator: Adobe Illustrator 20.1.0, SVG Export Plug-In . SVG Version: 6.00 Build 0)  -->
<svg version="1.1" id="Layer_1" xmlns="http://www.w3.org/2000/svg" xmlns:xlink="http://www.w3.org/1999/xlink" x="0px" y="0px"
	 viewBox="0 0 612 792" style="enable-background:new 0 0 612 792;" xml:space="preserve">
<style type="text/css">
	.st0{fill:none;stroke:#000000;stroke-width:3.5;stroke-miterlimit:10;}
</style>
<polyline class="st0" points="690,414.2 655.5,414.2 655.5,394.2 672,377.8 688.4,394.4 688.4,407.5 662.8,407.5 662.8,396.2 
	672,387.5 681.2,397.2 681.2,400.3 672,400.3 672,397 "/>
<polygon points="676,367.7 678,370 674,370 "/>
<polygon points="254.3,397 252.5,395 250.8,397 250.8,402.1 263.6,402.1 263.6,396.5 252.6,385 241.7,395.4 241.7,409.2 
	270.8,409.2 270.8,393.7 252.6,375.4 234.3,393.4 234.3,416 270.8,416 270.8,412.5 237.8,412.5 237.8,394.9 252.5,380.3 
	267.2,395.1 267.2,405.8 245.2,405.8 245.2,396.9 252.5,390 260.1,398 260.1,398.6 254.3,398.6 "/>
</svg>
