<?xml version="1.0" standalone="no"?>
<!DOCTYPE svg PUBLIC "-//W3C//DTD SVG 20010904//EN"
 "http://www.w3.org/TR/2001/REC-SVG-20010904/DTD/svg10.dtd">
<svg version="1.0" xmlns="http://www.w3.org/2000/svg"
 width="260.000000pt" height="260.000000pt" viewBox="0 0 260.000000 260.000000"
 preserveAspectRatio="xMidYMid meet">
<metadata>
Created by potrace 1.11, written by Peter Selinger 2001-2013
</metadata>
<g transform="translate(0.000000,260.000000) scale(0.100000,-0.100000)"
fill="#000000" stroke="none">
<path d="M1200 2503 c-52 -52 -302 -298 -554 -547 -253 -248 -472 -464 -488
-480 l-28 -29 0 -723 0 -724 1170 0 1170 0 0 113 0 112 -1051 0 c-621 0 -1053
4 -1056 9 -4 5 -6 259 -6 564 l0 554 416 412 c229 226 440 435 470 464 l55 54
469 -473 470 -472 -1 -341 -1 -341 -700 0 -700 0 -3 285 -2 284 34 31 c33 29
293 274 325 306 9 8 37 34 62 57 l46 42 70 -72 c39 -40 89 -93 113 -118 23
-25 99 -105 169 -179 80 -85 126 -141 126 -155 0 -21 -3 -21 -180 -21 l-180 0
-1 53 c-1 42 -7 59 -27 80 -14 15 -38 42 -53 60 -26 30 -54 42 -54 25 0 -5
-21 -30 -45 -58 -50 -56 -46 -33 -46 -265 l-1 -115 411 -3 411 -2 0 180 0 180
-97 101 c-54 56 -118 123 -143 149 -25 26 -122 128 -216 226 -95 98 -187 196
-206 217 -19 20 -39 37 -44 37 -5 0 -38 -28 -74 -63 -36 -34 -117 -111 -181
-172 -64 -60 -189 -181 -280 -267 l-164 -157 1 -438 c1 -241 2 -440 3 -443 0
-3 418 -5 929 -5 l927 0 3 497 2 498 -582 585 c-320 322 -584 585 -587 584 -3
0 -49 -44 -101 -96z"/>
</g>
</svg>
